<svg width="24" height="24" viewBox="0 0 24 24" fill="none" xmlns="http://www.w3.org/2000/svg">
    <path d="M15.1 18.95L14.225 21.375C14.1583 21.5583 14.0417 21.7083 13.875 21.825C13.7083 21.9417 13.525 22 13.325 22C12.9917 22 12.7208 21.8625 12.5125 21.5875C12.3042 21.3125 12.2667 21.0083 12.4 20.675L16.2 10.625C16.2833 10.4417 16.4083 10.2917 16.575 10.175C16.7417 10.0583 16.925 10 17.125 10H17.875C18.075 10 18.2583 10.0583 18.425 10.175C18.5917 10.2917 18.7167 10.4417 18.8 10.625L22.6 20.7C22.7333 21.0167 22.7 21.3125 22.5 21.5875C22.3 21.8625 22.0333 22 21.7 22C21.4833 22 21.2958 21.9375 21.1375 21.8125C20.9792 21.6875 20.8583 21.525 20.775 21.325L19.95 18.95H15.1ZM15.7 17.2H19.3L17.55 12.25H17.45L15.7 17.2ZM9 14L4.7 18.3C4.51667 18.4833 4.28333 18.575 4 18.575C3.71667 18.575 3.48333 18.4833 3.3 18.3C3.11667 18.1167 3.025 17.8833 3.025 17.6C3.025 17.3167 3.11667 17.0833 3.3 16.9L7.65 12.55C7.01667 11.85 6.4625 11.125 5.9875 10.375C5.5125 9.625 5.1 8.83333 4.75 8H6.85C7.15 8.6 7.47083 9.14167 7.8125 9.625C8.15417 10.1083 8.56667 10.6167 9.05 11.15C9.78333 10.35 10.3917 9.52917 10.875 8.6875C11.3583 7.84583 11.7667 6.95 12.1 6H2C1.71667 6 1.47917 5.90417 1.2875 5.7125C1.09583 5.52083 1 5.28333 1 5C1 4.71667 1.09583 4.47917 1.2875 4.2875C1.47917 4.09583 1.71667 4 2 4H8V3C8 2.71667 8.09583 2.47917 8.2875 2.2875C8.47917 2.09583 8.71667 2 9 2C9.28333 2 9.52083 2.09583 9.7125 2.2875C9.90417 2.47917 10 2.71667 10 3V4H16C16.2833 4 16.5208 4.09583 16.7125 4.2875C16.9042 4.47917 17 4.71667 17 5C17 5.28333 16.9042 5.52083 16.7125 5.7125C16.5208 5.90417 16.2833 6 16 6H14.1C13.75 7.18333 13.275 8.33333 12.675 9.45C12.075 10.5667 11.3333 11.6167 10.45 12.6L12.85 15.05L12.1 17.1L9 14Z" fill="#03FA6E"/>
</svg>
